<svg xmlns="http://www.w3.org/2000/svg" width="70" height="76.84" data-name="Layer 1" role="img"
    title="Não recomendado para menores de 10 (dez) anos">
    <defs>
        <clipPath id="a">
            <path d="M5.24 8.66h59.53v59.53H5.24z" style="fill: none;"></path>
        </clipPath>
    </defs>
    <g data-name="10_azul.psd" style="clip-path: url(&quot;#a&quot;);">
        <rect width="59.48" height="59.47" x="5.24" y="8.66" data-name="Background copy" rx="5.39"
            style="fill: rgb(255, 255, 255);"></rect>
        <rect width="56.61" height="56.61" x="6.58" y="10.09" data-name="Shape 2" rx="4.31"
            style="fill: rgb(33, 147, 209);"></rect>
        <path
            d="M24.74 24.59h4.48V51h-5.11V31.37a8.1 8.1 0 0 1-3.15 2v-4.72a9.7 9.7 0 0 0 2.32-1.8 7.3 7.3 0 0 0 1.46-2.26M49.79 32.63V43c0 3.21-.5 5.43-1.48 6.66s-2.71 1.84-5.19 1.84-4.25-.61-5.23-1.83-1.46-3.46-1.46-6.67V32.63q0-4.83 1.46-6.65t5.23-1.82c2.49 0 4.23.61 5.2 1.82s1.47 3.43 1.47 6.65m-5.36-2a7.4 7.4 0 0 0-.29-2.63 1 1 0 0 0-1-.64 1 1 0 0 0-1 .69 7.4 7.4 0 0 0-.3 2.57V45a7.6 7.6 0 0 0 .29 2.66 1.06 1.06 0 0 0 1 .6 1 1 0 0 0 1-.68 7.3 7.3 0 0 0 .3-2.58Z"
            style="fill: rgb(252, 253, 255);"></path>
    </g>
</svg>